<svg id="Layer_1" data-name="Layer 1" xmlns="http://www.w3.org/2000/svg" xmlns:xlink="http://www.w3.org/1999/xlink" viewBox="0 0 36.47 15.73"><defs><style>.cls-1{fill:url(#linear-gradient);}</style><linearGradient id="linear-gradient" x1="0.5" y1="8.7" x2="34.89" y2="8.7" gradientUnits="userSpaceOnUse"><stop offset="0" stop-color="#ff7200"/><stop offset="1" stop-color="#ffab00"/></linearGradient></defs><title>logo</title><path class="cls-1" d="M5.54,6.62a.79.79,0,0,1,.48.8.78.78,0,0,1-.49.79A4.54,4.54,0,0,1,4,8.44v.87c0,.14,0,.34,0,.59a.78.78,0,0,1-.26.66,1,1,0,0,1-.62.2.93.93,0,0,1-.88-.61,4.83,4.83,0,0,1-.34-1.73A2.39,2.39,0,0,1,.85,8.14.79.79,0,0,1,.5,7.42.8.8,0,0,1,.85,6.7a2.37,2.37,0,0,1,1.07-.29,6.68,6.68,0,0,1,.32-1.8,2.28,2.28,0,0,1,.82-1.14,2.64,2.64,0,0,1,1.55-.41,1.72,1.72,0,0,1,1,.28,1,1,0,0,1,.4.81A1,1,0,0,1,5.68,5a1.9,1.9,0,0,1-.92.39.89.89,0,0,0-.56.34A1.44,1.44,0,0,0,4,6.39,4.33,4.33,0,0,1,5.54,6.62Zm1.4,3.73a2.93,2.93,0,0,1-.37-1.21,21.18,21.18,0,0,1-.09-2.23c0-.92,0-1.64.07-2.15a2.89,2.89,0,0,1,.36-1.24.94.94,0,0,1,.87-.46,1,1,0,0,1,.88.46A2.9,2.9,0,0,1,9,4.76c.05.51.07,1.23.07,2.15A16.33,16.33,0,0,1,9,9.1a3,3,0,0,1-.4,1.24.93.93,0,0,1-.8.42A1,1,0,0,1,6.94,10.35Zm4.12,0a2.45,2.45,0,0,1-.93-1.12A4,4,0,0,1,9.8,7.58a3,3,0,0,1,.3-1.46.92.92,0,0,1,.83-.53.84.84,0,0,1,.93,1c0,.14,0,.25,0,.35s0,.19,0,.26a7,7,0,0,0,0,.71A1.16,1.16,0,0,0,12,8.6a.62.62,0,0,0,.49.26A.58.58,0,0,0,13,8.61a1.17,1.17,0,0,0,.19-.74,6.32,6.32,0,0,0,0-.65c0-.07,0-.17,0-.3s0-.24,0-.36c0-.64.31-1,.93-1a.92.92,0,0,1,.83.53,3.07,3.07,0,0,1,.29,1.46,3.63,3.63,0,0,1-.69,2.33,2.35,2.35,0,0,1-2,.87A2.46,2.46,0,0,1,11.06,10.37Zm7.74.07a2.21,2.21,0,0,1-.19-1c0-.35,0-.6,0-.75a1.07,1.07,0,0,0-.08-.38.26.26,0,0,0-.25-.15.34.34,0,0,0-.31.14.63.63,0,0,0-.11.35,5.47,5.47,0,0,0,0,.64,5.87,5.87,0,0,1,0,.84.78.78,0,0,1-.23.49.77.77,0,0,1-.58.2c-.8,0-1.19-1-1.19-3A5.51,5.51,0,0,1,16,6.15a1,1,0,0,1,.69-.71A1.11,1.11,0,0,1,17,5.38a1,1,0,0,1,.42.1.59.59,0,0,1,.26.28A1.58,1.58,0,0,1,18,5.63a1.66,1.66,0,0,1,.44,0,1.42,1.42,0,0,1,.67.17,1,1,0,0,1,.45.48,2.13,2.13,0,0,1,.58-.49,1.61,1.61,0,0,1,.75-.16,1.88,1.88,0,0,1,1.2.41,2.46,2.46,0,0,1,.79,1.1,4.07,4.07,0,0,1,.28,1.55,4,4,0,0,1-.25,1.54.89.89,0,0,1-.88.6.75.75,0,0,1-.6-.21.94.94,0,0,1-.22-.53,7.13,7.13,0,0,1,0-.92,2.8,2.8,0,0,0-.08-.77.34.34,0,0,0-.36-.24.26.26,0,0,0-.27.22,4.28,4.28,0,0,0-.05.75,2.55,2.55,0,0,0,0,.31,2.6,2.6,0,0,1-.21,1,.86.86,0,0,1-1.37,0Zm5.31-.89a5.75,5.75,0,0,1-.58-2.5A10.44,10.44,0,0,1,23.7,5.2a4.37,4.37,0,0,1,.56-1.54,1.13,1.13,0,0,1,1-.61,1,1,0,0,1,.66.24A.88.88,0,0,1,26.2,4a2.49,2.49,0,0,1-.05.46c0,.15-.07.34-.13.57l-.08.33a3.23,3.23,0,0,0-.08.5A2.21,2.21,0,0,1,27,5.59a2.5,2.5,0,0,1,1.15.28,2.13,2.13,0,0,1,.87.84,2.63,2.63,0,0,1,.34,1.39A2.78,2.78,0,0,1,29,9.4a2.59,2.59,0,0,1-.92,1,2.56,2.56,0,0,1-1.39.38C25.36,10.78,24.49,10.37,24.11,9.55Zm3-.74a.74.74,0,0,0,.23-.54.78.78,0,0,0-.23-.54.7.7,0,0,0-1,0,.76.76,0,0,0-.22.54.73.73,0,0,0,.22.54.7.7,0,0,0,1,0Zm4,1.65a2.44,2.44,0,0,1-1-.9,2.51,2.51,0,0,1-.34-1.31A2.59,2.59,0,0,1,31.13,6a2.73,2.73,0,0,1,1.4-.37,2.61,2.61,0,0,1,1.24.29,2,2,0,0,1,.83.76,1.83,1.83,0,0,1,.29,1,1.32,1.32,0,0,1-.62,1.21,2.84,2.84,0,0,1-1.49.38,3.06,3.06,0,0,1-1-.14,1.18,1.18,0,0,0,1.09.54,3.3,3.3,0,0,0,.67-.08,1.07,1.07,0,0,1,.25,0,.61.61,0,0,1,.39.12.4.4,0,0,1,.15.33.71.71,0,0,1-.42.59,2.85,2.85,0,0,1-1.36.25A3.18,3.18,0,0,1,31.14,10.46ZM32,8a.7.7,0,0,0,.19.06,1.2,1.2,0,0,0,.7-.05.53.53,0,0,0,.25-.19.44.44,0,0,0,0-.4.61.61,0,0,0-.27-.3A.85.85,0,0,0,32.56,7a1.2,1.2,0,0,0-.38.05.77.77,0,0,0-.43.42C31.63,7.74,31.81,7.93,32,8Zm.37,3.91a.62.62,0,0,1,.23.53,1.41,1.41,0,0,1-.54,1,3.39,3.39,0,0,1-1.33.66,6.2,6.2,0,0,1-1.74.19,5.93,5.93,0,0,1-1.68-.3A3.63,3.63,0,0,1,26,13.34a1.27,1.27,0,0,1-.47-1,.75.75,0,0,1,.24-.59.73.73,0,0,1,.53-.18.8.8,0,0,1,.33.08l.45.25a5.59,5.59,0,0,0,.94.48,3.1,3.1,0,0,0,1,.2,3.47,3.47,0,0,0,1.15-.13,5.45,5.45,0,0,0,.93-.43l.39-.2a.54.54,0,0,1,.28-.05A1,1,0,0,1,32.4,11.93Z"/></svg>